














<svg data-v-5756a75c="" width="72" height="72" xmlns="http://www.w3.org/2000/svg" class=""><g fill="#CCC" fill-rule="evenodd"><path d="M38 40a1 1 0 0 1 0 2H24a1 1 0 0 1 0-2h14zm13-9a1 1 0 0 1 0 2H24a1 1 0 0 1 0-2h27zm-6-9a1 1 0 0 1 0 2H24a1 1 0 0 1 0-2h21z"></path><path d="M41 9c12.703 0 23 10.297 23 23 0 12.447-9.888 22.585-22.237 22.988l-9.392 8.84a2 2 0 0 1-3.366-1.308L29 62.371v-7.457C17.233 53.9 8 44.028 8 32 8 19.297 18.297 9 31 9h10zM30.999 62.298l.001.073 9.943-9.358.755-.024C52.998 52.62 62 43.339 62 32c0-11.48-9.213-20.81-20.65-20.997L41 11H31c-11.598 0-21 9.402-21 21 0 10.799 8.186 19.793 18.82 20.888l.351.034 1.828.157v9.219z" fill-rule="nonzero"></path></g></svg>